solid asymmetric_box
  facet normal 0 0 -1
    outer loop
      vertex 10 -5 2
      vertex 30 5 2
      vertex 30 -5 2
    endloop
  endfacet
  facet normal 0 0 -1
    outer loop
      vertex 10 -5 2
      vertex 10 5 2
      vertex 30 5 2
    endloop
  endfacet
  facet normal 0 0 1
    outer loop
      vertex 10 -5 7
      vertex 30 -5 7
      vertex 30 5 7
    endloop
  endfacet
  facet normal 0 0 1
    outer loop
      vertex 10 -5 7
      vertex 30 5 7
      vertex 10 5 7
    endloop
  endfacet
  facet normal 0 -1 0
    outer loop
      vertex 10 -5 2
      vertex 30 -5 2
      vertex 30 -5 7
    endloop
  endfacet
  facet normal 0 -1 0
    outer loop
      vertex 10 -5 2
      vertex 30 -5 7
      vertex 10 -5 7
    endloop
  endfacet
  facet normal 0 1 0
    outer loop
      vertex 10 5 2
      vertex 10 5 7
      vertex 30 5 7
    endloop
  endfacet
  facet normal 0 1 0
    outer loop
      vertex 10 5 2
      vertex 30 5 7
      vertex 30 5 2
    endloop
  endfacet
  facet normal -1 0 0
    outer loop
      vertex 10 -5 2
      vertex 10 -5 7
      vertex 10 5 7
    endloop
  endfacet
  facet normal -1 0 0
    outer loop
      vertex 10 -5 2
      vertex 10 5 7
      vertex 10 5 2
    endloop
  endfacet
  facet normal 1 0 0
    outer loop
      vertex 30 -5 2
      vertex 30 5 2
      vertex 30 5 7
    endloop
  endfacet
  facet normal 1 0 0
    outer loop
      vertex 30 -5 2
      vertex 30 5 7
      vertex 30 -5 7
    endloop
  endfacet
endsolid asymmetric_box
